<svg width="29" height="36" viewBox="0 0 29 36" fill="none" xmlns="http://www.w3.org/2000/svg">
<path d="M19.8621 1.94841C18.2502 1.00601 16.3492 0.500004 14.4 0.5L19.8621 1.94841ZM19.8621 1.94841C21.4736 2.89063 22.7188 4.22334 23.4508 5.76978M19.8621 1.94841L23.4508 5.76978M23.4508 5.76978C24.1823 7.31489 24.3721 9.01025 24.0005 10.645M23.4508 5.76978L24.0005 10.645M24.0005 10.645C23.6287 12.2807 22.7085 13.7936 21.3438 14.9877M24.0005 10.645L21.3438 14.9877M21.3438 14.9877C19.9785 16.1823 18.2314 17.0019 16.3209 17.3345M21.3438 14.9877L16.3209 17.3345M16.3209 17.3345C14.4104 17.667 12.4306 17.4959 10.6342 16.8448M16.3209 17.3345L10.6342 16.8448M10.6342 16.8448C8.83789 16.1938 7.31288 15.0949 6.24513 13.6967M10.6342 16.8448L6.24513 13.6967M6.24513 13.6967C5.17956 12.3013 4.61575 10.6693 4.61429 9.00648M6.24513 13.6967L4.61429 9.00648M4.61429 9.00648L4.62424 8.62846C4.73338 6.4641 5.79277 4.40373 7.60797 2.88284C9.42659 1.35909 11.8591 0.500134 14.4 0.5L4.61429 9.00648ZM18.5143 22.1C21.1296 22.1 23.6265 23.0097 25.4581 24.6123C27.2876 26.2131 28.3 28.3688 28.3 30.6V32.4C28.3 33.199 27.9378 33.9812 27.2657 34.5693C26.5914 35.1593 25.6642 35.5 24.6857 35.5H4.11429C3.13576 35.5 2.20856 35.1593 1.5343 34.5693C0.862173 33.9812 0.5 33.199 0.5 32.4V30.6C0.5 28.3688 1.51238 26.2131 3.34187 24.6123C5.17349 23.0097 7.67042 22.1 10.2857 22.1H18.5143Z" fill="white" stroke="white"/>
</svg>
