<svg xmlns="http://www.w3.org/2000/svg" xmlns:xlink="http://www.w3.org/1999/xlink" width="75" zoomAndPan="magnify" viewBox="0 0 56.25 56.249997" height="75" preserveAspectRatio="xMidYMid meet" version="1.0"><defs><clipPath id="0477fbba01"><path d="M 1.570312 2.3125 L 54.121094 2.3125 L 54.121094 35 L 1.570312 35 Z M 1.570312 2.3125 " clip-rule="nonzero"/></clipPath><clipPath id="ec3c60dc53"><path d="M 14 12 L 45 12 L 45 51.902344 L 14 51.902344 Z M 14 12 " clip-rule="nonzero"/></clipPath></defs><g clip-path="url(#0477fbba01)"><path fill="#bfe063" d="M 31.894531 33.40625 C 31.894531 33.40625 21.894531 33.726562 12.53125 25.726562 C 3.171875 17.726562 1.730469 2.578125 1.621094 2.683594 C 1.515625 2.789062 15.789062 -0.0585938 26.234375 9.390625 C 36.683594 18.84375 31.894531 33.40625 31.894531 33.40625 Z M 51.3125 23.335938 C 54.300781 17.410156 54.054688 9.832031 54.054688 9.832031 C 54.054688 9.832031 44.425781 9.761719 39.085938 16.328125 C 32.179688 24.789062 35.027344 34.839844 35.027344 34.839844 C 35.027344 34.839844 46.988281 31.902344 51.3125 23.335938 Z M 51.3125 23.335938 " fill-opacity="1" fill-rule="nonzero"/></g><g clip-path="url(#ec3c60dc53)"><path fill="#6f913d" d="M 44.621094 18.488281 C 44.28125 18.132812 43.714844 18.132812 43.355469 18.46875 C 37.714844 23.992188 34.9375 30.558594 33.585938 37.246094 C 32.089844 29.671875 27.910156 18.167969 16.179688 12.117188 C 15.734375 11.886719 15.203125 12.0625 14.988281 12.488281 C 14.757812 12.914062 14.933594 13.460938 15.363281 13.675781 C 31.734375 22.132812 32.589844 41.972656 32.625 44.363281 C 32.445312 46.609375 32.394531 48.820312 32.375 50.980469 C 32.375 51.476562 32.765625 51.867188 33.265625 51.867188 C 33.746094 51.867188 34.15625 51.476562 34.15625 50.980469 C 34.171875 48.964844 34.226562 46.910156 34.371094 44.820312 C 34.386719 44.75 34.40625 44.679688 34.40625 44.609375 L 34.40625 44.414062 C 35.082031 35.761719 37.378906 26.769531 44.601562 19.710938 C 44.957031 19.390625 44.957031 18.84375 44.621094 18.488281 Z M 44.621094 18.488281 " fill-opacity="1" fill-rule="nonzero"/></g></svg>